<svg xmlns="http://www.w3.org/2000/svg" xmlns:xlink="http://www.w3.org/1999/xlink" width="500" zoomAndPan="magnify" viewBox="0 0 375 374.999991" height="500" preserveAspectRatio="xMidYMid meet" version="1.0"><defs><clipPath id="850fd23353"><path d="M 145.453125 145.453125 L 229.546875 145.453125 L 229.546875 229.546875 L 145.453125 229.546875 Z M 145.453125 145.453125 " clip-rule="nonzero"/></clipPath><clipPath id="a57e1e71b5"><path d="M 187.5 145.453125 C 164.277344 145.453125 145.453125 164.277344 145.453125 187.5 C 145.453125 210.722656 164.277344 229.546875 187.5 229.546875 C 210.722656 229.546875 229.546875 210.722656 229.546875 187.5 C 229.546875 164.277344 210.722656 145.453125 187.5 145.453125 Z M 187.5 145.453125 " clip-rule="nonzero"/></clipPath><clipPath id="c5d679acf8"><path d="M 154.78125 154.78125 L 220.21875 154.78125 L 220.21875 220.21875 L 154.78125 220.21875 Z M 154.78125 154.78125 " clip-rule="nonzero"/></clipPath><clipPath id="ff537150ab"><path d="M 187.5 154.78125 C 169.429688 154.78125 154.78125 169.429688 154.78125 187.5 C 154.78125 205.570312 169.429688 220.21875 187.5 220.21875 C 205.570312 220.21875 220.21875 205.570312 220.21875 187.5 C 220.21875 169.429688 205.570312 154.78125 187.5 154.78125 Z M 187.5 154.78125 " clip-rule="nonzero"/></clipPath><clipPath id="b928a5f4f7"><path d="M 164.792969 164.792969 L 210.207031 164.792969 L 210.207031 210.207031 L 164.792969 210.207031 Z M 164.792969 164.792969 " clip-rule="nonzero"/></clipPath><clipPath id="d67f9a28ea"><path d="M 187.5 164.792969 C 174.960938 164.792969 164.792969 174.960938 164.792969 187.5 C 164.792969 200.039062 174.960938 210.207031 187.5 210.207031 C 200.039062 210.207031 210.207031 200.039062 210.207031 187.5 C 210.207031 174.960938 200.039062 164.792969 187.5 164.792969 Z M 187.5 164.792969 " clip-rule="nonzero"/></clipPath></defs><g clip-path="url(#850fd23353)"><g clip-path="url(#a57e1e71b5)"><path fill="#923838" d="M 145.453125 145.453125 L 229.546875 145.453125 L 229.546875 229.546875 L 145.453125 229.546875 Z M 145.453125 145.453125 " fill-opacity="1" fill-rule="nonzero"/></g></g><g clip-path="url(#c5d679acf8)"><g clip-path="url(#ff537150ab)"><path fill="#dd4141" d="M 154.78125 154.78125 L 220.21875 154.78125 L 220.21875 220.21875 L 154.78125 220.21875 Z M 154.78125 154.78125 " fill-opacity="1" fill-rule="nonzero"/></g></g><g clip-path="url(#b928a5f4f7)"><g clip-path="url(#d67f9a28ea)"><path fill="#ff5757" d="M 164.792969 164.792969 L 210.207031 164.792969 L 210.207031 210.207031 L 164.792969 210.207031 Z M 164.792969 164.792969 " fill-opacity="1" fill-rule="nonzero"/></g></g></svg>